HIERARCHY
ROOT hip
{
	OFFSET 0.000000 0.000000 0.000000 
	CHANNELS 6 Xposition Yposition Zposition Xrotation Zrotation Yrotation
	JOINT abdomen
	{
		OFFSET 0.000000 3.402643 0.000000 
		CHANNELS 3 Xrotation Zrotation Yrotation
		JOINT chest
		{
			OFFSET 0.000000 8.438565 -0.680529 
			CHANNELS 3 Xrotation Zrotation Yrotation
			JOINT neck
			{
				OFFSET 0.000000 10.207942 -0.272212 
				CHANNELS 3 Xrotation Zrotation Yrotation
				JOINT head
				{
					OFFSET 0.000000 3.130431 0.000000 
					CHANNELS 3 Xrotation Zrotation Yrotation
					End Site
					{
						OFFSET 0.000000 3.130435 0.000000 
					}
				}
			}
			JOINT lCollar
			{
				OFFSET 3.470700 6.669187 -0.816635 
				CHANNELS 3 Yrotation Zrotation Xrotation
				JOINT lShldr
				{
					OFFSET 3.198488 0.000000 0.000000 
					CHANNELS 3 Zrotation Yrotation Xrotation
					JOINT lForeArm
					{
						OFFSET 10.139888 0.000000 0.000000 
						CHANNELS 3 Yrotation Zrotation Xrotation
						JOINT lHand
						{
							OFFSET 8.370511 0.000000 0.000000 
							CHANNELS 3 Zrotation Yrotation Xrotation
							End Site
							{
								OFFSET 4.083176 0.000000 0.000000 
							}
						}
					}
				}
			}
			JOINT rCollar
			{
				OFFSET -3.470700 6.669187 -0.816635 
				CHANNELS 3 Yrotation Zrotation Xrotation
				JOINT rShldr
				{
					OFFSET -3.198488 0.000000 0.000000 
					CHANNELS 3 Zrotation Yrotation Xrotation
					JOINT rForeArm
					{
						OFFSET -10.139888 0.000000 0.000000 
						CHANNELS 3 Yrotation Zrotation Xrotation
						JOINT rHand
						{
							OFFSET -8.370511 0.000000 0.000000 
							CHANNELS 3 Zrotation Yrotation Xrotation
							End Site
							{
								OFFSET -4.083176 0.000000 0.000000 
							}
						}
					}
				}
			}
		}
	}
	JOINT lThigh
	{
		OFFSET 5.308129 -1.633274 1.361059 
		CHANNELS 3 Xrotation Zrotation Yrotation
		JOINT lShin
		{
			OFFSET -2.041588 -20.007561 0.000000 
			CHANNELS 3 Xrotation Zrotation Yrotation
			JOINT lFoot
			{
				OFFSET 0.000000 -19.190928 -1.224953 
				CHANNELS 3 Xrotation Yrotation Zrotation
				End Site
				{
					OFFSET 0.000000 -2.449906 4.627600 
				}
			}
		}
	}
	JOINT rThigh
	{
		OFFSET -5.308129 -1.633274 1.361059 
		CHANNELS 3 Xrotation Zrotation Yrotation
		JOINT rShin
		{
			OFFSET 2.041588 -20.007561 0.000000 
			CHANNELS 3 Xrotation Zrotation Yrotation
			JOINT rFoot
			{
				OFFSET 0.000000 -19.190928 -1.224953 
				CHANNELS 3 Xrotation Yrotation Zrotation
				End Site
				{
					OFFSET 0.000000 -2.449906 4.627600 
				}
			}
		}
	}
}
MOTION
Frames: 16
Frame Time: 0.016667
5.482960 42.908348 45.036888 0.273767 -2.812470 -2.426010 -17.145000 0.431189 3.233840 18.973801 -1.884050 1.624290 -18.575800 -7.594590 7.854050 0.420000 -0.187641 2.786340 2.000000 -2.000000 0.000000 99.147003 -116.268997 16.629900 93.975197 -0.204694 0.155939 0.045696 0.008679 -130.320007 -2.000000 2.000000 0.000000 -60.249001 124.963997 47.636101 -89.853996 0.215197 0.136725 -0.171953 0.164365 148.585999 -14.903582 -0.487426 -8.740527 37.694874 2.549488 2.683558 -19.803268 17.904675 5.534558 -7.599447 2.082332 17.595432 30.182890 -3.304574 -2.090930 -32.625927 -23.646339 -16.902302 
6.015308 42.983379 45.326385 0.312861 -2.753870 -2.984230 -17.052500 0.325357 3.479200 19.032400 -1.854810 1.709480 -17.518801 -6.863370 7.457720 0.811410 0.191739 2.734540 2.000000 -2.000000 0.000000 100.305000 -119.119003 15.748000 95.957603 -0.199645 0.155500 0.045203 0.003754 -132.087997 -2.000000 2.000000 0.000000 -63.346401 126.630997 46.031700 -89.785698 0.215360 0.136724 -0.165224 0.162338 151.095993 -14.362082 -1.153606 -8.212690 37.323345 2.539003 2.677187 -20.069057 18.156778 5.663502 -7.800884 1.383493 16.679796 30.726135 -3.292250 -2.131106 -32.156815 -22.815535 -16.200325 
6.480253 43.056465 45.598465 0.655199 -3.007620 -2.945000 -17.109301 0.297013 3.570540 19.032400 -1.884100 1.759080 -16.516300 -6.157120 6.874920 0.811657 0.328244 2.580440 2.000000 -2.000000 0.000000 102.966003 -122.348999 14.688700 97.676300 -0.195282 0.154978 0.044822 -0.001975 -134.139008 -2.000000 2.000000 0.000000 -67.594803 128.386002 43.850899 -89.277901 0.216572 0.136714 -0.155148 0.148919 154.923996 -14.363507 -1.495038 -8.140539 37.236885 2.518167 2.682223 -19.988590 18.240154 5.617805 -8.343894 1.126285 15.463176 30.942806 -3.285147 -2.126998 -31.056952 -23.519299 -16.028711 
6.865237 43.122345 45.849991 0.714476 -3.818060 -2.860620 -16.825800 0.524288 3.537520 19.384199 -1.728150 1.763860 -16.117901 -6.000800 6.596090 1.065910 0.532605 2.493240 2.000000 -2.000000 0.000000 106.696999 -126.133003 12.417800 99.727097 -0.190100 0.154184 0.044824 -0.007819 -139.714996 -2.000000 2.000000 0.000000 -71.327103 130.033005 42.412399 -88.848198 0.217597 0.136697 -0.149057 0.156097 157.287003 -14.227969 -1.191179 -8.192538 37.422329 2.525398 2.681298 -19.787676 18.302338 5.517115 -8.443485 1.456502 14.079693 31.075598 -3.246932 -2.154786 -29.734610 -24.630163 -15.875213 
7.167583 43.206902 46.065567 0.812769 -4.237860 -2.912190 -16.804100 0.617951 3.620930 19.276899 -1.513290 1.811130 -16.014900 -5.818420 6.358100 1.124700 0.659303 2.399510 2.000000 -2.000000 0.000000 110.017998 -130.667999 9.940740 101.358002 -0.186001 0.153420 0.045926 -0.020319 -144.197006 -2.000000 2.000000 0.000000 -74.271202 132.121994 41.619900 -87.949699 0.219740 0.136637 -0.139048 0.141406 161.272003 -13.975780 -1.211521 -8.553830 37.333057 2.540114 2.677517 -19.842979 18.584665 5.596562 -8.595744 1.605044 12.822322 31.485092 -3.190794 -2.184282 -29.261370 -25.038147 -15.865348 
7.422265 43.253822 46.271259 1.087550 -4.637840 -3.018140 -16.524300 0.393590 3.938010 19.931299 -1.904180 1.925070 -15.870200 -5.038930 5.641510 1.193570 1.039600 2.127690 2.000000 -2.000000 0.000000 113.419998 -134.617004 7.309830 102.363998 -0.183484 0.152891 0.046539 -0.024651 -145.759995 -2.000000 2.000000 0.000000 -76.755096 133.294006 41.656799 -86.416496 0.223394 0.136457 -0.125529 0.133281 166.906006 -13.725975 -1.196648 -9.024833 36.901138 2.552007 2.669653 -20.120388 18.876863 5.765088 -9.352233 1.778742 11.362233 32.162205 -3.117014 -2.244152 -27.856176 -25.481482 -15.383102 
7.657141 43.295074 46.448082 1.165610 -4.442440 -2.668910 -15.673000 -0.291830 4.185370 21.602600 -2.587460 1.915270 -16.461300 -4.505940 4.898220 0.949543 1.186150 1.754120 2.000000 -2.000000 0.000000 117.287003 -137.744995 4.376030 103.301003 -0.181147 0.152359 0.050302 -0.042266 -152.195007 -2.000000 2.000000 0.000000 -78.564301 133.022995 43.063499 -84.492699 0.227970 0.136093 179.886002 179.875000 -8.074000 -13.311555 -1.883307 -9.721097 36.292587 2.552195 2.631991 -20.092167 19.342472 5.886674 -10.084651 1.207003 9.175931 33.352097 -3.021996 -2.339330 -26.918415 -25.147181 -14.727129 
7.767739 43.314926 46.581760 0.892477 -5.292330 -2.582880 -16.646900 0.354404 4.501390 19.462200 -1.982060 2.196040 -14.927500 -4.397550 4.001890 1.457700 1.410000 1.432360 2.000000 -2.000000 0.000000 118.648003 -143.056000 3.752140 103.897003 -0.179667 0.152001 0.064436 -0.065617 -157.292999 -2.000000 2.000000 0.000000 -81.902000 135.035995 44.078201 -83.320801 0.230751 0.135796 179.893997 179.882004 -4.031030 -12.883337 -1.276330 -10.351068 36.483070 2.619011 2.619999 -20.289579 19.463081 5.911528 -10.512649 2.196378 7.192929 34.573883 -2.891146 -2.450475 -23.990364 -25.011734 -13.067248 
7.848319 43.310284 46.733196 1.019930 -5.262840 -1.842110 -16.627600 0.150942 4.541360 19.599100 -1.904030 2.180240 -14.560800 -3.858030 3.236910 1.575200 1.722100 1.138770 2.000000 -2.000000 0.000000 121.769997 -146.606003 1.970770 104.024002 -0.179352 0.151922 0.069009 -0.066889 -161.559998 -2.000000 2.000000 0.000000 -83.430298 134.912994 46.239498 -82.080597 0.233686 0.135420 179.899994 179.878006 -1.374770 -12.792656 -1.484039 -10.912929 36.326775 2.608143 2.609623 -20.023298 19.419390 5.773971 -11.228456 2.217161 4.600947 35.568058 -2.761182 -2.542850 -21.826738 -23.577679 -11.464851 
7.903759 43.344704 46.902710 0.911809 -5.097010 -1.136250 -16.500200 -0.142771 4.645280 19.882401 -1.962750 2.181280 -13.851600 -3.251430 2.442160 1.858810 2.053660 0.841845 2.000000 -2.000000 0.000000 125.018997 -150.597000 0.438046 103.740997 -0.180055 0.152096 0.076531 -0.081309 -167.371002 -2.000000 2.000000 0.000000 -84.157600 134.223999 48.740601 -80.576698 0.237234 0.134879 179.901993 179.880005 -0.212663 -12.424720 -1.831560 -11.561014 35.981171 2.633044 2.584526 -19.611345 19.746271 5.741343 -11.741323 2.286485 2.787171 36.172737 -2.692880 -2.590170 -21.811512 -22.045235 -10.878036 
7.908185 43.351276 47.065941 0.734921 -4.726180 -0.676389 -16.629601 -0.423594 5.007930 19.735800 -2.089630 2.315070 -12.982600 -2.579790 1.562310 2.162020 2.404790 0.519082 2.000000 -2.000000 0.000000 128.421997 -154.031998 -0.346014 101.728996 -0.185071 0.153230 0.079662 -0.096180 -169.509995 -2.000000 2.000000 0.000000 -85.020798 133.074997 51.196301 -78.750504 0.241520 0.134097 179.903000 179.882004 0.578370 -11.867136 -2.352087 -12.006617 35.509346 2.646858 2.567625 -19.742470 19.758570 5.763965 -12.163670 2.391017 2.674845 36.009293 -2.652654 -2.590106 -23.030804 -22.079165 -11.472586 
7.858014 43.335808 47.174232 0.666599 -4.999660 0.449086 -16.586599 -0.507225 5.173560 19.970200 -2.333860 2.377380 -12.680300 -1.554170 0.462604 2.240530 2.922060 0.096202 2.000000 -2.000000 0.000000 132.018997 -156.705994 -1.201840 98.584503 -0.192984 0.154649 0.078137 -0.083981 -168.483994 -2.000000 2.000000 0.000000 -86.259903 131.113998 52.498100 -76.748596 0.246188 0.133083 179.903000 179.882004 0.461183 -11.757743 -2.085393 -12.479081 35.536213 2.673647 2.555463 -20.160532 19.241159 5.614949 -12.319956 3.228838 3.136471 34.910831 -2.645208 -2.538021 -25.934322 -22.323900 -13.120478 
7.777512 43.320854 47.369141 0.137406 -5.732410 1.274430 -16.891199 -0.309827 5.676720 19.618000 -2.821890 2.673110 -11.353000 -0.821477 -0.938299 2.671090 3.312290 -0.476986 2.000000 -2.000000 0.000000 136.065002 -159.363007 -0.918609 95.254501 -0.201434 0.155675 0.075584 -0.079677 -166.697006 -2.000000 2.000000 0.000000 90.687500 50.457901 -127.433998 -74.316902 0.251806 0.131633 179.904007 179.882996 1.095940 -11.200653 -1.218277 -12.443979 35.698399 2.720489 2.537950 -21.011442 18.763582 5.606755 -11.858864 4.543353 4.322559 33.603458 -2.666620 -2.468504 -28.376970 -22.185038 -14.408250 
7.674981 43.273293 47.512932 -0.107837 -5.029290 3.339500 -17.027700 -0.643490 5.815140 19.539600 -2.987810 2.699430 -10.526600 -0.026422 -2.451040 2.955130 3.702610 -1.122150 2.000000 -2.000000 0.000000 141.300995 -161.483994 -0.005408 92.481003 -0.208508 0.156155 0.070731 -0.070521 -162.996002 -2.000000 2.000000 0.000000 85.484398 52.521198 -129.278000 -71.768097 0.257623 0.129859 179.910004 179.899002 4.133020 -10.882582 -1.832679 -12.378437 35.207619 2.722730 2.517471 -20.829802 18.093586 5.210451 -11.705692 4.073136 5.430230 32.969444 -2.725276 -2.417749 -30.351608 -22.584658 -15.719379 
7.597670 43.190533 47.937687 -1.313300 -4.852250 2.532580 -16.321400 -0.256914 7.293210 20.967300 -2.890550 3.406560 -9.771200 1.131840 -3.975650 3.268930 4.268640 -1.744140 2.000000 -2.000000 0.000000 146.791000 -163.007004 -0.292072 90.254501 -0.214199 0.156291 0.053631 -0.052970 -156.199005 -2.000000 2.000000 0.000000 77.897697 54.286701 -134.074005 -69.004402 0.263835 0.127646 -0.081564 0.089320 -170.750000 -9.009034 -1.722146 -11.034232 35.531773 2.822981 2.493861 -22.277788 18.207428 5.603620 -10.428143 4.374240 7.790466 32.881054 -2.823645 -2.378327 -29.975948 -22.531366 -15.257045 
7.304681 43.268135 47.793777 -0.999750 -4.901600 8.141760 -16.555599 -0.450548 5.826630 20.488199 -2.509760 2.698310 -8.570460 3.083070 -5.291080 3.877800 5.185710 -2.169290 2.000000 -2.000000 0.000000 152.328995 -164.936005 -2.093380 89.658699 -0.215664 0.136759 0.048485 -0.034941 -149.500000 -2.000000 2.000000 0.000000 68.525803 54.827000 -141.412994 -65.713402 0.271081 0.124623 -0.086338 0.091145 -167.399994 -10.633024 -1.419463 -13.686655 35.389603 2.771102 2.509385 -20.349154 16.055052 4.164002 -10.076970 4.679087 7.246825 31.947111 -2.833752 -2.336398 -33.023872 -22.465786 -17.264072 
